<?xml version="1.0" encoding="UTF-8" ?>
<svg version="1.1" xmlns="http://www.w3.org/2000/svg" width="1024" height="1024">
    <path d="M0 0 C337.92 0 675.84 0 1024 0 C1024 337.92 1024 675.84 1024 1024 C686.08 1024 348.16 1024 0 1024 C0 686.08 0 348.16 0 0 Z " fill="#FAC108" transform="translate(0,0)" />
    <path d="M0 0 C168.96 0 337.92 0 512 0 C512 145.86 512 291.72 512 442 C343.04 442 174.08 442 0 442 C0 296.14 0 150.28 0 0 Z " fill="#62A7CF" transform="translate(0,0)" />
    <path d="M0 0 C168.63 0 337.26 0 511 0 C511 145.53 511 291.06 511 441 C342.37 441 173.74 441 0 441 C0 295.47 0 149.94 0 0 Z " fill="#62A7CF" transform="translate(513,581)" />
    <path d="M0 0 C9.24 0 18.48 0 28 0 C46.8515625 37.703125 46.8515625 37.703125 47.84887695 39.69824219 C48.53699629 41.07415341 49.22564177 42.44980161 49.91479492 43.82519531 C51.56349438 47.11718739 53.20535005 50.41197391 54.82421875 53.71875 C58.13591504 60.44633079 61.63504832 66.92411301 65.6171875 73.28125 C67.11370079 76.22354732 67.62563921 78.73634185 68 82 C68.66 82 69.32 82 70 82 C79.33333333 100.66666667 88.66666667 119.33333333 98 138 C100.39433947 135.0019973 102.13016588 131.96016624 103.8203125 128.51953125 C104.35164795 127.44533936 104.8829834 126.37114746 105.43041992 125.2644043 C105.98963135 124.12527588 106.54884277 122.98614746 107.125 121.8125 C111.38841053 113.19433293 115.70130677 104.61871126 120.28369141 96.1652832 C122.07585971 92.84062459 123.68427324 89.54234129 125 86 C125.66 86 126.32 86 127 86 C127.061875 85.195625 127.12375 84.39125 127.1875 83.5625 C128.07680372 79.66324521 129.54781649 76.97054993 131.546875 73.546875 C133.1216275 70.78682491 134.5342197 67.97587471 135.9375 65.125 C137.83844846 61.28440692 139.79823658 57.49830471 141.875 53.75 C145.43409917 47.28986426 148.69399038 40.6881878 151.96777344 34.08056641 C153.63690933 30.71623904 155.31894891 27.35838486 157 24 C157.65631527 22.68753264 158.31256494 21.37503247 158.96875 20.0625 C163.984375 10.03125 163.984375 10.03125 169 0 C178.24 0 187.48 0 197 0 C197 64.35 197 128.7 197 195 C190.07 195 183.14 195 176 195 C175.67 142.53 175.34 90.06 175 36 C172.525 41.94 172.525 41.94 170 48 C168.47633879 51.05500474 166.93659189 54.06397001 165.3125 57.0625 C164.53743077 58.51154248 163.76271284 59.96077289 162.98828125 61.41015625 C162.54347412 62.24087646 162.09866699 63.07159668 161.64038086 63.92749023 C153.97670598 78.28191029 146.56163847 92.74450717 139.3125 107.3125 C138.40579213 109.13095571 137.49889151 110.94931532 136.59179688 112.76757812 C133.38616814 119.19467925 130.1814511 125.6222304 126.98510742 132.05395508 C123.23278742 139.59539107 119.36209728 147.06321516 115.38867188 154.49023438 C113.38321313 158.2665038 111.46670149 161.97264839 110 166 C109.34 166 108.68 166 108 166 C107.814375 167.1446875 107.814375 167.1446875 107.625 168.3125 C107 171 107 171 105 174 C101.7421875 174.29296875 101.7421875 174.29296875 97.875 174.1875 C95.95300781 174.14689453 95.95300781 174.14689453 93.9921875 174.10546875 C93.00476563 174.07066406 92.01734375 174.03585937 91 174 C90.52250809 173.04057495 90.04501617 172.0811499 89.55305481 171.09265137 C85.04098876 162.02788279 80.52464282 152.96525788 76.00415516 143.90468597 C73.68056348 139.247089 71.35845826 134.58876358 69.03979492 129.92871094 C66.79989999 125.42710638 64.55604214 120.92749745 62.30948448 116.42921448 C61.45533054 114.7172263 60.60257936 113.00453747 59.75129128 111.29112244 C58.55386219 108.88163486 57.35135789 106.47474263 56.14770508 104.06835938 C55.80100266 103.36776398 55.45430023 102.66716858 55.09709167 101.94534302 C52.97028695 97.70918684 50.62759439 93.69396819 48.05321789 89.71315765 C46.73317954 87.56599151 45.87943198 85.35881545 45 83 C43.76854181 80.46774475 42.52152454 77.94936073 41.25 75.4375 C40.52602845 73.99870456 39.80207022 72.55990243 39.078125 71.12109375 C38.72298828 70.41710449 38.36785156 69.71311523 38.00195312 68.98779297 C36.66149008 66.32842403 35.33038409 63.66442307 34 61 C33.53207031 60.06542969 33.06414062 59.13085938 32.58203125 58.16796875 C31.34624364 55.69334221 30.11517184 53.21654708 28.88671875 50.73828125 C28.52255859 50.00544922 28.15839844 49.27261719 27.78320312 48.51757812 C27.06283775 47.06785885 26.34404086 45.61735894 25.62695312 44.16601562 C24.13871419 40.86462221 24.13871419 40.86462221 22 38 C21.67 89.81 21.34 141.62 21 195 C14.07 195 7.14 195 0 195 C0 130.65 0 66.3 0 0 Z " fill="#FCFEFE" transform="translate(157,138)" />
    <path d="M0 0 C7.26 0 14.52 0 22 0 C23.8105221 1.8105221 23.11994552 4.29501839 23.12442875 6.70432377 C23.11903159 7.93555045 23.11903159 7.93555045 23.11352539 9.19165039 C23.11364593 10.06404326 23.11376646 10.93643614 23.11389065 11.83526516 C23.11314138 14.67275436 23.10551252 17.51017872 23.09765625 20.34765625 C23.09618687 22.09403451 23.09516614 23.84041321 23.09460449 25.58679199 C23.0893511 32.07870136 23.07539003 38.57060131 23.0625 45.0625 C23.041875 59.561875 23.02125 74.06125 23 89 C61.61 89 100.22 89 140 89 C140 59.63 140 30.26 140 0 C147.59 0 155.18 0 163 0 C163.02311595 25.40757015 163.04097766 50.81513779 163.05181217 76.22271633 C163.05697579 88.01900528 163.06401972 99.81528758 163.07543945 111.61157227 C163.0853843 121.88920997 163.09185295 132.16684287 163.09408849 142.44448525 C163.09539594 147.89001788 163.09848393 153.33553675 163.10573006 158.78106499 C163.11248713 163.90025209 163.1146176 169.0194197 163.11310768 174.13861084 C163.11338415 176.02327136 163.11539112 177.9079325 163.11920547 179.79258919 C163.12413785 182.35401437 163.12299999 184.91536468 163.12025452 187.47679138 C163.12462378 188.6105245 163.12462378 188.6105245 163.12908131 189.76716131 C163.11412121 194.88587879 163.11412121 194.88587879 162 196 C154.74 196 147.48 196 140 196 C140 167.62 140 139.24 140 110 C101.39 110 62.78 110 23 110 C23.03961628 137.92859844 23.03961628 137.92859844 23.09008789 165.85717773 C23.09460449 171.24816895 23.09460449 171.24816895 23.09544373 173.76869202 C23.09698337 175.53615063 23.10050871 177.30360816 23.10557556 179.07106018 C23.11285229 181.74197221 23.11390744 184.41281984 23.11352539 187.08374023 C23.1171235 187.87645293 23.12072161 188.66916563 23.12442875 189.48589993 C23.11402634 194.88597366 23.11402634 194.88597366 22 196 C14.74 196 7.48 196 0 196 C0 131.32 0 66.64 0 0 Z " fill="#FBFDFE" transform="translate(687,718)" />
    <path d="M0 0 C43.89 0 87.78 0 133 0 C133 6.93 133 13.86 133 21 C96.7 21 60.4 21 23 21 C23 42.12 23 63.24 23 85 C55.34 85 87.68 85 121 85 C121 92.26 121 99.52 121 107 C88.33 107 55.66 107 22 107 C22 129.11 22 151.22 22 174 C59.62 174 97.24 174 136 174 C136 180.93 136 187.86 136 195 C91.12 195 46.24 195 0 195 C0 130.65 0 66.3 0 0 Z " fill="#FEFEFA" transform="translate(195,651)" />
    <path d="M0 0 C0.71720215 0.00182281 1.4344043 0.00364563 2.17333984 0.00552368 C18.56509445 0.07590112 33.00522534 3.10385749 48.5 8.3125 C49.49 8.6425 50.48 8.9725 51.5 9.3125 C51.5 9.9725 51.5 10.6325 51.5 11.3125 C53.81 11.9725 56.12 12.6325 58.5 13.3125 C58.5 13.9725 58.5 14.6325 58.5 15.3125 C60.48 15.8075 60.48 15.8075 62.5 16.3125 C62.85827672 21.35124282 61.78467297 24.498139 59.5625 29 C57.32014038 33.5700115 57.32014038 33.5700115 55.5 38.3125 C51.7386296 37.75257621 49.32277531 36.74674049 46.1875 34.625 C27.64217306 23.22305825 4.40610611 20.5281824 -16.81640625 24.6171875 C-23.34845192 26.30962437 -31.73222855 29.36487726 -35.71875 35.05078125 C-36.7137124 36.76709138 -37.6127942 38.5380884 -38.5 40.3125 C-38.995 41.3025 -38.995 41.3025 -39.5 42.3125 C-40.2607749 49.65690387 -39.390081 57.49708511 -36.5 64.3125 C-34.60830442 65.53959914 -34.60830442 65.53959914 -32.5 66.3125 C-31.4737987 67.19973654 -30.47434198 68.11860621 -29.5 69.0625 C-20.56364375 76.78111378 -9.48548263 79.69193036 1.6171875 82.88671875 C8.02578059 84.73482976 14.26662847 86.94289731 20.5 89.3125 C21.27907715 89.60382813 22.0581543 89.89515625 22.86083984 90.1953125 C39.74024669 96.53838538 56.22619559 103.49409464 65.05859375 120.2734375 C68.13148576 127.60311192 68.95050867 134.17455853 69 142.0625 C69.00636475 142.92520508 69.01272949 143.78791016 69.01928711 144.67675781 C68.83266958 154.12122781 65.93013922 162.06327525 61.5 170.3125 C60.84 170.3125 60.18 170.3125 59.5 170.3125 C59.17 171.6325 58.84 172.9525 58.5 174.3125 C57.84 174.3125 57.18 174.3125 56.5 174.3125 C56.2525 174.89 56.005 175.4675 55.75 176.0625 C53.21500732 180.62548683 50.30788528 182.55351758 45.5 184.3125 C44.1696875 185.116875 44.1696875 185.116875 42.8125 185.9375 C40.5 187.3125 40.5 187.3125 38.5 187.3125 C38.5 187.9725 38.5 188.6325 38.5 189.3125 C20.31145821 196.29577952 3.81399202 196.82496433 -15.5 196.3125 C-15.5 195.6525 -15.5 194.9925 -15.5 194.3125 C-16.5725 194.374375 -17.645 194.43625 -18.75 194.5 C-34.80910466 194.36035561 -52.75501516 185.61674612 -65.5 176.3125 C-66.92699219 175.32056641 -66.92699219 175.32056641 -68.3828125 174.30859375 C-73.68961428 170.41348994 -73.68961428 170.41348994 -75.5 168.3125 C-75.95703125 165.25390625 -75.95703125 165.25390625 -75.5 162.3125 C-74.12890625 160.75 -74.12890625 160.75 -72.5 159.3125 C-71.35723214 156.92367861 -71.35723214 156.92367861 -70.4375 154.3125 C-69.31438429 151.28144073 -68.31054059 149.02831089 -66.5 146.3125 C-63.5 147.3125 -63.5 147.3125 -61.5 149.375 C-48.84604359 162.40556225 -27.73216002 172.06640409 -9.48828125 172.61328125 C-7.26309901 172.63233814 -5.03773805 172.63571364 -2.8125 172.625 C-1.6565332 172.62153564 -0.50056641 172.61807129 0.69042969 172.61450195 C14.66197591 172.43616275 26.89746441 170.06421483 37.5 160.3125 C43.33983996 152.84728586 44.50589606 145.69691855 43.5 136.3125 C40.6065092 127.26504829 32.6182046 120.72121841 24.5 116.3125 C22.0695736 115.29820574 19.65713599 114.34285201 17.1875 113.4375 C16.49253418 113.1792041 15.79756836 112.9209082 15.08154297 112.65478516 C9.47626478 110.60149121 3.80856658 108.8023219 -1.90380859 107.07348633 C-6.4844513 105.6745087 -10.86184697 103.99621892 -15.2734375 102.14453125 C-17.53176303 101.30063066 -19.69965049 100.77938607 -22.0625 100.3125 C-26.90637865 99.33350871 -31.08904864 97.50646885 -35.5 95.3125 C-36.23089844 94.96445312 -36.96179688 94.61640625 -37.71484375 94.2578125 C-47.39318789 89.32508877 -55.36627251 81.90615325 -60.5 72.3125 C-60.9125 71.56226563 -61.325 70.81203125 -61.75 70.0390625 C-66.78633505 58.95213047 -66.03059858 43.79002081 -62.5 32.3125 C-56.98993671 19.74568898 -46.88690896 11.0022169 -34.23046875 6.02734375 C-30.66807753 4.72606559 -27.11314244 3.46588097 -23.5 2.3125 C-22.35402344 1.93996094 -21.20804688 1.56742188 -20.02734375 1.18359375 C-13.50058012 -0.38352043 -6.67343713 -0.03482905 0 0 Z " fill="#FEFEF8" transform="translate(767.5,207.6875)" />
    <path d="M0 0 C169.29 0 338.58 0 513 0 C513 0.33 513 0.66 513 1 C344.37 1 175.74 1 2 1 C2 146.53 2 292.06 2 442 C170.63 442 339.26 442 513 442 C513 442.66 513 443.32 513 444 C175.08 444 -162.84 444 -511 444 C-511 443.67 -511 443.34 -511 443 C-342.37 443 -173.74 443 0 443 C0 296.81 0 150.62 0 0 Z " fill="#E2D88A" transform="translate(511,580)" />
    <path d="M0 0 C168.63 0 337.26 0 511 0 C511 0.66 511 1.32 511 2 C343.03 2 175.06 2 2 2 C2 146.21 2 290.42 2 439 C169.64 439 337.28 439 510 439 C510 439.66 510 440.32 510 441 C341.7 441 173.4 441 0 441 C0 295.47 0 149.94 0 0 Z " fill="#75A4A7" transform="translate(513,581)" />
    <path d="M0 0 C168.96 0 337.92 0 512 0 C506.09143037 5.90856963 489.77496232 4.25638705 481.5794698 4.26282471 C480.0715441 4.25781297 478.56361903 4.25261083 477.05569458 4.24723816 C475.4098891 4.24883074 473.76408428 4.25129875 472.11828125 4.25455457 C467.64323622 4.26090553 463.16828311 4.25494916 458.69324422 4.24679029 C453.84954007 4.24016471 449.00584538 4.24517206 444.16213989 4.24867249 C434.69601093 4.25369366 425.22991712 4.24810038 415.76379253 4.23882218 C404.73982187 4.22840716 393.71585868 4.22850914 382.69188403 4.22899476 C363.03237492 4.22949445 343.37288213 4.22035618 323.71337891 4.20581055 C304.62939151 4.19169804 285.54541847 4.18464099 266.46142578 4.18530273 C264.69515198 4.18536267 264.69515198 4.18536267 262.89319588 4.18542381 C261.12998656 4.18548435 261.12998656 4.18548435 259.33115685 4.1855461 C237.59711379 4.18623508 215.86307683 4.18035436 194.12903575 4.17139288 C186.43935743 4.1683731 178.74968022 4.16731295 171.06000137 4.16686058 C161.70384745 4.16617994 152.34770382 4.16173561 142.99155428 4.15252777 C138.21561327 4.14789844 133.43968547 4.14486849 128.66374207 4.14612198 C124.29849962 4.14721219 119.93328646 4.14372842 115.56805013 4.13647345 C113.98303998 4.13465139 112.39802683 4.13453824 110.81301655 4.13624074 C108.6706028 4.13828844 106.52828663 4.13427273 104.38588142 4.12863445 C103.19236002 4.12793003 101.99883862 4.1272256 100.7691499 4.12649983 C98 4 98 4 96 3 C92.98000001 2.87701041 89.98160625 2.81420445 86.96044922 2.79467773 C86.02381439 2.78477814 85.08717957 2.77487854 84.12216187 2.76467896 C81.01636307 2.73301078 77.91054896 2.70828552 74.8046875 2.68359375 C72.65519811 2.66302881 70.50571281 2.64203247 68.35623169 2.62062073 C62.69109399 2.5653525 57.02591951 2.51596419 51.36071777 2.46777344 C45.58289302 2.41759306 39.80512187 2.36188894 34.02734375 2.30664062 C22.68494159 2.19900096 11.34249295 2.09756891 0 2 C0 1.34 0 0.68 0 0 Z " fill="#EAC022" transform="translate(0,442)" />
    <path d="M0 0 C43.89 0 87.78 0 133 0 C133 6.93 133 13.86 133 21 C96.7 21 60.4 21 23 21 C23 20.67 23 20.34 23 20 C58.64 20 94.28 20 131 20 C131 14.06 131 8.12 131 2 C88.43 2 45.86 2 2 2 C2 65.36 2 128.72 2 194 C46.22 194 90.44 194 136 194 C136 194.33 136 194.66 136 195 C91.12 195 46.24 195 0 195 C0 130.65 0 66.3 0 0 Z " fill="#FFF7BF" transform="translate(195,651)" />
    <path d="M0 0 C7.59 0 15.18 0 23 0 C23.02311595 25.40757015 23.04097766 50.81513779 23.05181217 76.22271633 C23.05697579 88.01900528 23.06401972 99.81528758 23.07543945 111.61157227 C23.0853843 121.88920997 23.09185295 132.16684287 23.09408849 142.44448525 C23.09539594 147.89001788 23.09848393 153.33553675 23.10573006 158.78106499 C23.11248713 163.90025209 23.1146176 169.0194197 23.11310768 174.13861084 C23.11338415 176.02327136 23.11539112 177.9079325 23.11920547 179.79258919 C23.12413785 182.35401437 23.12299999 184.91536468 23.12025452 187.47679138 C23.12462378 188.6105245 23.12462378 188.6105245 23.12908131 189.76716131 C23.11412121 194.88587879 23.11412121 194.88587879 22 196 C14.74 196 7.48 196 0 196 C0 167.62 0 139.24 0 110 C-38.61 110 -77.22 110 -117 110 C-117 109.34 -117 108.68 -117 108 C-78.06 108 -39.12 108 1 108 C1 136.71 1 165.42 1 195 C2.32 194.67 3.64 194.34 5 194 C10.28 194 15.56 194 21 194 C21 130.64 21 67.28 21 2 C10.57228297 0.92508286 10.57228297 0.92508286 2 4 C1.87492518 6.61600453 1.81394595 9.20691934 1.79467773 11.82446289 C1.78477814 12.64390884 1.77487854 13.4633548 1.76467896 14.30763245 C1.73296945 17.02927717 1.70826938 19.75093939 1.68359375 22.47265625 C1.66303237 24.35453253 1.64203612 26.23640411 1.62062073 28.11827087 C1.56531574 33.08143311 1.51594377 38.0446376 1.46777344 43.00787354 C1.41761978 48.06843851 1.36190176 53.1289418 1.30664062 58.18945312 C1.19895605 68.12624945 1.09753411 78.06309923 1 88 C0.67 88 0.34 88 0 88 C0 58.96 0 29.92 0 0 Z " fill="#D2EAF4" transform="translate(827,718)" />
    <path d="M0 0 C36.3 0 72.6 0 110 0 C110 0.66 110 1.32 110 2 C104.38867729 3.89885165 99.46364979 4.28168222 93.56396484 4.24291992 C92.64438492 4.24481827 91.72480499 4.24671661 90.77735901 4.24867249 C87.75513018 4.25235992 84.73314476 4.24170577 81.7109375 4.23046875 C79.60299711 4.22927578 77.49505619 4.22882404 75.38711548 4.2290802 C70.97744399 4.22751889 66.56785409 4.21925528 62.15820312 4.20581055 C56.50789896 4.18880046 50.85768418 4.18499705 45.20735741 4.18575573 C40.85793201 4.18548377 36.50852612 4.17999867 32.15910721 4.17275429 C30.07550835 4.16957438 27.99190728 4.1676018 25.90830612 4.16686058 C22.99791449 4.16469103 20.08761739 4.15593398 17.17724609 4.14526367 C16.31789963 4.14571686 15.45855316 4.14617004 14.57316589 4.14663696 C10.57639716 4.12522493 6.90517867 3.96390617 3 3 C2.67 3 2.34 3 2 3 C1.67 22.8 1.34 42.6 1 63 C33.01 63 65.02 63 98 63 C98 63.33 98 63.66 98 64 C65.66 64 33.32 64 0 64 C0 42.88 0 21.76 0 0 Z " fill="#F5C328" transform="translate(218,672)" />
    <path d="M0 0 C32.67 0 65.34 0 99 0 C99 0.33 99 0.66 99 1 C66.99 1 34.98 1 2 1 C2 22.12 2 43.24 2 65 C14.21837891 64.98259766 14.21837891 64.98259766 26.68359375 64.96484375 C31.82877683 64.95973721 36.97395681 64.95492345 42.11914062 64.95117188 C50.29468436 64.9451826 58.47021702 64.93822802 66.64575195 64.92456055 C73.23335305 64.91355293 79.82094531 64.90772377 86.40855598 64.90512276 C88.92808279 64.903268 91.44760891 64.89964643 93.96713066 64.89426994 C97.48257765 64.88706324 100.99797461 64.8860089 104.51342773 64.88647461 C105.56646591 64.88287933 106.61950409 64.87928406 107.70445251 64.87557983 C109.13271362 64.87764183 109.13271362 64.87764183 110.58982849 64.87974548 C111.42220756 64.87882369 112.25458662 64.8779019 113.11218929 64.87695217 C115 65 115 65 116 66 C116.08700342 67.63472882 116.10701063 69.27314055 116.09765625 70.91015625 C116.09282227 72.39418945 116.09282227 72.39418945 116.08789062 73.90820312 C116.07532227 75.46958008 116.07532227 75.46958008 116.0625 77.0625 C116.05798828 78.10728516 116.05347656 79.15207031 116.04882812 80.22851562 C116.03699913 82.8190666 116.02051689 85.40950559 116 88 C115.34 88 114.68 88 114 88 C114 81.07 114 74.14 114 67 C76.38 67 38.76 67 0 67 C0 44.89 0 22.78 0 0 Z " fill="#F1CA4D" transform="translate(217,758)" />
    <path d="M0 0 C9.24 0 18.48 0 28 0 C28.99 1.98 29.98 3.96 31 6 C30.67 6.66 30.34 7.32 30 8 C29.34 7.34 28.68 6.68 28 6 C28 4.68 28 3.36 28 2 C23.85418113 1.97113249 19.70838784 1.95324673 15.5625 1.9375 C14.37849609 1.92912109 13.19449219 1.92074219 11.97460938 1.91210938 C10.84990234 1.90888672 9.72519531 1.90566406 8.56640625 1.90234375 C7.52427979 1.89710693 6.48215332 1.89187012 5.40844727 1.88647461 C3.04871253 1.72694444 3.04871253 1.72694444 2 3 C1.90009511 5.43880177 1.8655805 7.84934264 1.87301636 10.28869629 C1.87145637 11.06063654 1.86989638 11.8325768 1.86828911 12.62790918 C1.86427608 15.23438031 1.86746992 17.84079398 1.87060547 20.44726562 C1.86925156 22.30783625 1.86747169 24.1684066 1.86529541 26.02897644 C1.86071981 31.0970112 1.86251115 36.1650257 1.8656745 41.23306084 C1.86819745 46.52439302 1.86586074 51.81572341 1.86428833 57.10705566 C1.86246644 65.99471347 1.86487344 74.88236298 1.86962891 83.77001953 C1.87507156 94.06115779 1.87330892 104.35227624 1.8678025 114.64341402 C1.86327191 123.46206218 1.86262056 132.28070436 1.86524117 141.09935331 C1.86680424 146.37384078 1.86699689 151.64831891 1.86370468 156.92280579 C1.86082675 161.88031763 1.86280022 166.83780382 1.86859894 171.79531288 C1.86992696 173.62030812 1.86953172 175.44530551 1.86733627 177.27029991 C1.8646264 179.75066418 1.86800388 182.23094485 1.87301636 184.71130371 C1.87078564 185.44309798 1.86855491 186.17489224 1.86625659 186.92886209 C1.5899968 190.24787889 1.5899968 190.24787889 3 193 C11.415 193.495 11.415 193.495 20 194 C20 141.53 20 89.06 20 35 C20.33 35 20.66 35 21 35 C21 87.8 21 140.6 21 195 C14.07 195 7.14 195 0 195 C0 130.65 0 66.3 0 0 Z " fill="#E8FCFE" transform="translate(157,138)" />
    <path d="M0 0 C37.29 0 74.58 0 113 0 C113 6.6 113 13.2 113 20 C68.78 20 24.56 20 -21 20 C-21 19.67 -21 19.34 -21 19 C22.56 19 66.12 19 111 19 C111 13.39 111 7.78 111 2 C74.37 2 37.74 2 0 2 C0 1.34 0 0.68 0 0 Z " fill="#FFFEE2" transform="translate(218,825)" />
    <path d="M0 0 C9.24 0 18.48 0 28 0 C28 64.35 28 128.7 28 195 C21.07 195 14.14 195 7 195 C7 153.75 7 112.5 7 70 C7.33 70 7.66 70 8 70 C8 110.92 8 151.84 8 194 C14.27 194 20.54 194 27 194 C26.67 130.64 26.34 67.28 26 2 C17.42 2 8.84 2 0 2 C0.33 3.32 0.66 4.64 1 6 C0.01 6 -0.98 6 -2 6 C-1.34 4.02 -0.68 2.04 0 0 Z " fill="#DDF5FD" transform="translate(326,138)" />
    <path d="M0 0 C3.95099928 -0.0246985 7.90196874 -0.04285923 11.85302734 -0.05493164 C13.85906551 -0.06244036 15.86508202 -0.0751447 17.87109375 -0.08789062 C19.75634766 -0.09272461 19.75634766 -0.09272461 21.6796875 -0.09765625 C23.42354736 -0.10551147 23.42354736 -0.10551147 25.20263672 -0.11352539 C28 0 28 0 30 1 C30 2.32 30 3.64 30 5 C29.34 5 28.68 5 28 5 C28 67.7 28 130.4 28 195 C27.67 195 27.34 195 27 195 C27 131.31 27 67.62 27 2 C18.42 2 9.84 2 1 2 C0.67 1.34 0.34 0.68 0 0 Z " fill="#6CA3C2" transform="translate(327,136)" />
    <path d="M0 0 C0.33 0 0.66 0 1 0 C1 52.8 1 105.6 1 160 C8.26 160 15.52 160 23 160 C22.67 160.99 22.34 161.98 22 163 C14.74 162.67 7.48 162.34 0 162 C-0.495 87.255 -0.495 87.255 -1 11 C-3.79442919 13.79442919 -5.01247132 15.7016295 -6.6875 19.1875 C-7.12449219 20.08855469 -7.56148438 20.98960937 -8.01171875 21.91796875 C-8.33785156 22.60503906 -8.66398437 23.29210937 -9 24 C-10.14826216 20.55521352 -9.92939863 20.22423437 -8.41796875 17.12890625 C-8.06283203 16.38962891 -7.70769531 15.65035156 -7.34179688 14.88867188 C-6.96087891 14.12103516 -6.57996094 13.35339844 -6.1875 12.5625 C-5.63352539 11.4168457 -5.63352539 11.4168457 -5.06835938 10.24804688 C-3.40582427 6.81850856 -1.70652712 3.40782386 0 0 Z " fill="#72A4C0" transform="translate(332,173)" />
    <path d="M0 0 C2.672336 3.56311466 3.77263971 5.84585747 5 10 C4.01 9.67 3.02 9.34 2 9 C1.67 58.17 1.34 107.34 1 158 C0.67 158 0.34 158 0 158 C0 105.86 0 53.72 0 0 Z " fill="#6EA4C2" transform="translate(178,173)" />
    <path d="M0 0 C1.24007812 -0.01224609 2.48015625 -0.02449219 3.7578125 -0.03710938 C4.95664062 -0.03904297 6.15546875 -0.04097656 7.390625 -0.04296875 C9.00759277 -0.04913208 9.00759277 -0.04913208 10.65722656 -0.05541992 C13.96299094 0.20422924 16.65867929 1.01680003 19.75 2.1875 C19.75 2.5175 19.75 2.8475 19.75 3.1875 C18.780625 3.1153125 17.81125 3.043125 16.8125 2.96875 C-12.69140751 0.76716216 -12.69140751 0.76716216 -39.25 12.1875 C-39.91 12.8475 -40.57 13.5075 -41.25 14.1875 C-40.92 12.5375 -40.59 10.8875 -40.25 9.1875 C-39.26 9.1875 -38.27 9.1875 -37.25 9.1875 C-37.25 8.5275 -37.25 7.8675 -37.25 7.1875 C-33.50455597 4.4635407 -29.6832617 3.38107046 -25.25 2.1875 C-24.92 1.8575 -24.59 1.5275 -24.25 1.1875 C-16.27492608 -0.19733426 -8.06329346 0.00424384 0 0 Z " fill="#FEF9C8" transform="translate(772.25,228.8125)" />
    <path d="M0 0 C0 2 0 2 -1.35546875 3.40234375 C-6.51726892 7.72769016 -6.51726892 7.72769016 -9.4375 9.375 C-12.88361749 11.5603428 -15.44101108 14.39533681 -18.23046875 17.35546875 C-20 19 -20 19 -22 19 C-22 19.66 -22 20.32 -22 21 C-22.66 21 -23.32 21 -24 21 C-21.3271913 12.73859128 -9.44428003 0 0 0 Z " fill="#FEF7C6" transform="translate(732,215)" />
    <path d="M0 0 C0.85658203 0.21329956 0.85658203 0.21329956 1.73046875 0.4309082 C8.87618826 2.05190161 15.69349613 2.26802411 23 2.1875 C24.11117187 2.18685547 25.22234375 2.18621094 26.3671875 2.18554688 C32.96784064 2.15060224 39.44783086 1.80330629 46 1 C45.67 1.99 45.34 2.98 45 4 C30.68603438 5.79467314 14.83010817 6.86284449 1 2 C0.67 1.34 0.34 0.68 0 0 Z " fill="#FEF4BB" transform="translate(742,378)" />
    <path d="M0 0 C0.66 0 1.32 0 2 0 C2 2.64 2 5.28 2 8 C2.66 8 3.32 8 4 8 C3.06656498 16.77428922 0.09676681 24.23026983 -4 32 C-4.66 32 -5.32 32 -6 32 C-5.731875 31.21625 -5.46375 30.4325 -5.1875 29.625 C-4.795625 28.42875 -4.40375 27.2325 -4 26 C-3.74734375 25.319375 -3.4946875 24.63875 -3.234375 23.9375 C-0.5274283 16.08204683 -0.2961133 8.2299077 0 0 Z " fill="#F5C323" transform="translate(836,344)" />
    <path d="M0 0 C0.9178125 0.20496094 1.835625 0.40992188 2.78125 0.62109375 C9.17877808 2.02559309 15.48033667 3.34803367 22 4 C22 4.66 22 5.32 22 6 C32.56 5.67 43.12 5.34 54 5 C54 5.66 54 6.32 54 7 C49.12534043 7.04962457 44.25082959 7.08582554 39.37597656 7.10986328 C37.71937497 7.11988957 36.06279093 7.13351406 34.40625 7.15087891 C32.01818495 7.17527621 29.63035492 7.18651694 27.2421875 7.1953125 C26.14026566 7.21079636 26.14026566 7.21079636 25.01608276 7.22659302 C20.60166487 7.22754529 17.1113274 6.57276961 13 5 C10.88288875 4.5827591 8.75719187 4.20667429 6.625 3.875 C5.56539062 3.70742188 4.50578125 3.53984375 3.4140625 3.3671875 C2.61742187 3.24601562 1.82078125 3.12484375 1 3 C0.67 2.01 0.34 1.02 0 0 Z " fill="#EDC12B" transform="translate(730,398)" />
    <path d="M0 0 C0 0.66 0 1.32 0 2 C-4.38461538 5 -4.38461538 5 -7 5 C-7.103125 5.5775 -7.20625 6.155 -7.3125 6.75 C-8 9 -8 9 -9.5234375 10.76953125 C-11.43036869 13.6501072 -11.3687033 15.50909889 -11.3125 18.9375 C-11.30863281 19.95714844 -11.30476562 20.97679687 -11.30078125 22.02734375 C-10.99505682 25.04885403 -10.19227344 27.22902457 -9 30 C-8.875 32.8125 -8.875 32.8125 -9 35 C-8.34 35 -7.68 35 -7 35 C-7.33 35.66 -7.66 36.32 -8 37 C-12.58801149 33.00316086 -13.64885181 27.19778951 -14.29296875 21.33203125 C-14.50759036 14.57656067 -13.18283108 10.40671119 -8.5625 5.3125 C-2.67567568 0 -2.67567568 0 0 0 Z " fill="#EEC744" transform="translate(741,236)" />
    <path d="M0 0 C7.75 -0.125 7.75 -0.125 10 1 C12.33022478 1.20560807 14.66456298 1.36599952 17 1.5 C23.77777778 1.88888889 23.77777778 1.88888889 26 3 C27.4465242 3.15067214 28.8987934 3.24861036 30.3515625 3.31640625 C31.62773438 3.37924805 31.62773438 3.37924805 32.9296875 3.44335938 C33.81914063 3.48267578 34.70859375 3.52199219 35.625 3.5625 C36.97078125 3.62727539 36.97078125 3.62727539 38.34375 3.69335938 C40.56234283 3.79956861 42.7810488 3.90161194 45 4 C45 4.33 45 4.66 45 5 C35.43 5 25.86 5 16 5 C16 4.34 16 3.68 16 3 C14.845 3.04125 13.69 3.0825 12.5 3.125 C8.05518699 3.14087433 4.26275869 2.21793105 0 1 C0 0.67 0 0.34 0 0 Z " fill="#FDF4C2" transform="translate(736,399)" />
    <path d="M0 0 C2.13961538 -0.00215856 4.27869057 -0.02025017 6.41821289 -0.03930664 C15.03912128 -0.07344068 23.24046812 0.56568508 31.74047852 2.18530273 C31.74047852 2.51530273 31.74047852 2.84530273 31.74047852 3.18530273 C29.59471215 3.21216212 27.44885206 3.23163361 25.30297852 3.24780273 C24.10801758 3.2594043 22.91305664 3.27100586 21.68188477 3.28295898 C18.74047852 3.18530273 18.74047852 3.18530273 17.74047852 2.18530273 C15.59661195 2.02671431 13.44781013 1.93400975 11.29907227 1.86889648 C9.99389648 1.82700195 8.6887207 1.78510742 7.34399414 1.74194336 C5.95532522 1.70212666 4.5666533 1.66241448 3.17797852 1.62280273 C1.78538668 1.57962285 0.39280824 1.53600873 -0.99975586 1.49194336 C-4.41956949 1.38544397 -7.83945911 1.2834335 -11.25952148 1.18530273 C-11.25952148 1.84530273 -11.25952148 2.50530273 -11.25952148 3.18530273 C-14.55952148 3.18530273 -17.85952148 3.18530273 -21.25952148 3.18530273 C-14.22027283 -0.3343216 -7.7297089 -0.00087056 0 0 Z " fill="#FEFBD0" transform="translate(765.259521484375,207.814697265625)" />
    <path d="M0 0 C0.66 0.66 1.32 1.32 2 2 C-2.49739425 11.09752086 -7.04449737 20.14016196 -12 29 C-13.11323838 25.16013429 -12.8178154 23.63563079 -11 20 C-10.17403109 18.70361171 -9.34000177 17.41233999 -8.5 16.125 C-6.17907454 12.5319638 -5.1658758 9.11942781 -4 5 C-1.875 2.0625 -1.875 2.0625 0 0 Z " fill="#72A8C8" transform="translate(319,148)" />
    <path d="M0 0 C4.44327117 -0.12559255 8.88554505 -0.21525202 13.33007812 -0.2746582 C14.83514444 -0.29947579 16.34009462 -0.33334251 17.84472656 -0.37719727 C28.66019388 -0.68404464 37.0376429 0.6001739 47 5 C43.36409556 6.05107889 41.38741132 5.75779381 37.75 4.625 C29.12832175 1.95875846 20.45525439 1.76421682 11.5 1.4375 C10.39140625 1.39431641 9.2828125 1.35113281 8.140625 1.30664062 C5.42718494 1.20137786 2.71366583 1.09924154 0 1 C0 0.67 0 0.34 0 0 Z " fill="#F3CC4A" transform="translate(760,207)" />
    <path d="M0 0 C0.66 0 1.32 0 2 0 C1.3749298 4.75237198 -0.57432481 8.49098782 -2.75 12.6875 C-3.10835938 13.39068359 -3.46671875 14.09386719 -3.8359375 14.81835938 C-4.55309692 16.22559125 -5.27245693 17.63170407 -5.99414062 19.03662109 C-7.34905887 21.68134258 -8.67564264 24.33986841 -10 27 C-10.66666667 28.33333333 -11.33333333 29.66666667 -12 31 C-13 28 -13 28 -12.328125 26.23828125 C-11.97234375 25.60277344 -11.6165625 24.96726563 -11.25 24.3125 C-9.1084696 20.30456637 -7.52783359 16.27793404 -6 12 C-5.34 12 -4.68 12 -4 12 C-3.71125 11.13375 -3.4225 10.2675 -3.125 9.375 C-2.08333333 6.25 -1.04166667 3.125 0 0 Z " fill="#6DA3C2" transform="translate(277,229)" />
    <path d="M0 0 C1.37351794 3.12163168 0.89111525 4.33811581 -0.1875 7.6875 C-2 11 -2 11 -3.75 12.1875 C-6.64084284 11.94659643 -8.61940959 10.70508015 -11.05078125 9.19140625 C-14.25335521 7.23392117 -17.63274123 5.65409203 -21 4 C-21 3.34 -21 2.68 -21 2 C-16.91358743 2.73266488 -13.40525846 4.68657975 -9.75 6.5625 C-9.1003125 6.89185547 -8.450625 7.22121094 -7.78125 7.56054688 C-6.18565706 8.37007565 -4.59257517 9.18455042 -3 10 C-2.85691406 9.05898437 -2.71382812 8.11796875 -2.56640625 7.1484375 C-2.06040338 4.33575949 -1.41164009 2.44684283 0 0 Z " fill="#ECC027" transform="translate(826,236)" />
    <path d="M0 0 C0.84820313 0.50789063 1.69640625 1.01578125 2.5703125 1.5390625 C10.81544781 6.40224665 19.11261673 10.43424136 28 14 C28 14.33 28 14.66 28 15 C21.71041085 14.55074363 17.48096396 13.0097779 12 10 C9.85912976 8.96865903 7.71407506 7.9467831 5.56640625 6.9296875 C4 6 4 6 3 4 C2.01 3.67 1.02 3.34 0 3 C0 2.01 0 1.02 0 0 Z " fill="#FEF6BA" transform="translate(712,363)" />
    <path d="M0 0 C0 3 0 3 -2.1875 5.5625 C-4.88145407 7.89726019 -6.69671384 8.84384984 -10 10 C-10.886875 10.53625 -11.77375 11.0725 -12.6875 11.625 C-15 13 -15 13 -17 13 C-17 13.66 -17 14.32 -17 15 C-21.95 16.485 -21.95 16.485 -27 18 C-27 17.01 -27 16.02 -27 15 C-22.545 14.505 -22.545 14.505 -18 14 C-18 13.34 -18 12.68 -18 12 C-17.030625 11.731875 -16.06125 11.46375 -15.0625 11.1875 C-14.051875 10.795625 -13.04125 10.40375 -12 10 C-11.67 9.01 -11.34 8.02 -11 7 C-10.0925 6.71125 -9.185 6.4225 -8.25 6.125 C-4.4407862 4.80642599 -2.65822233 2.97095437 0 0 Z " fill="#FDF1B5" transform="translate(823,382)" />
    <path d="M0 0 C1.26026798 2.52053595 0.91874445 3.8542098 0.5625 6.625 C0.46066406 7.44226563 0.35882813 8.25953125 0.25390625 9.1015625 C0.17011719 9.72804687 0.08632813 10.35453125 0 11 C-0.99 11.33 -1.98 11.66 -3 12 C-4.69281093 14.77713308 -4.69281093 14.77713308 -6.1875 18.0625 C-6.71730469 19.16722656 -7.24710937 20.27195313 -7.79296875 21.41015625 C-8.39044922 22.69212891 -8.39044922 22.69212891 -9 24 C-10.14826216 20.55521352 -9.92939863 20.22423437 -8.41796875 17.12890625 C-8.06283203 16.38962891 -7.70769531 15.65035156 -7.34179688 14.88867188 C-6.96087891 14.12103516 -6.57996094 13.35339844 -6.1875 12.5625 C-5.63352539 11.4168457 -5.63352539 11.4168457 -5.06835938 10.24804688 C-3.40582427 6.81850856 -1.70652712 3.40782386 0 0 Z " fill="#7BABC5" transform="translate(332,173)" />
    <path d="M0 0 C6.15719082 0.39723812 10.9030919 1.57781733 16.55859375 4.01171875 C19.97907238 5.3963285 23.40199037 6.2004423 27 7 C27 7.33 27 7.66 27 8 C25.27014758 7.88487847 23.54111249 7.75744323 21.8125 7.625 C20.84957031 7.55539062 19.88664063 7.48578125 18.89453125 7.4140625 C15.9545665 6.99350074 13.71951025 6.16365732 11 5 C8.37852695 4.22441626 5.74714354 3.4992225 3.109375 2.78125 C1 2 1 2 0 0 Z " fill="#F1C949" transform="translate(741,307)" />
    <path d="M0 0 C5.65020618 0.60108576 10.66164461 2.07528683 16 4 C16 4.66 16 5.32 16 6 C18.31 6.66 20.62 7.32 23 8 C23 8.66 23 9.32 23 10 C23.66 10.33 24.32 10.66 25 11 C21.46800703 10.66887566 19.23798231 9.58667306 16.375 7.625 C12.21120598 4.86240627 8.06639377 3.76179118 3.22265625 2.67578125 C2.12244141 2.34126953 2.12244141 2.34126953 1 2 C0.67 1.34 0.34 0.68 0 0 Z " fill="#FEF2B4" transform="translate(803,213)" />
    <path d="M0 0 C0.33 0.66 0.66 1.32 1 2 C-0.47634621 6.20190846 -2.96761625 7.76381675 -6.75 9.75 C-10.90522961 11.69357514 -14.43777282 12.70246344 -19 13 C-16 11 -16 11 -13.3125 9.75 C-8.40826021 7.15908086 -3.92721953 3.92721953 0 0 Z " fill="#FEF4B9" transform="translate(807,366)" />
    <path d="M0 0 C0.66 0 1.32 0 2 0 C0.3341708 6.16356805 -2.87805286 11.48259656 -6 17 C-6.99 16.34 -7.98 15.68 -9 15 C-8.67 14.34 -8.34 13.68 -8 13 C-7.34 13 -6.68 13 -6 13 C-5.27743171 8.51866426 -5.27743171 8.51866426 -5 4 C-3.68 4 -2.36 4 -1 4 C-0.67 2.68 -0.34 1.36 0 0 Z " fill="#6AA4C6" transform="translate(262,260)" />
    <path d="M0 0 C2.672336 3.56311466 3.77263971 5.84585747 5 10 C4.01 9.67 3.02 9.34 2 9 C1.67 15.93 1.34 22.86 1 30 C0.67 30 0.34 30 0 30 C0 20.1 0 10.2 0 0 Z " fill="#70A4C4" transform="translate(178,173)" />
    <path d="M0 0 C5.445 1.485 5.445 1.485 11 3 C10.67 3.99 10.34 4.98 10 6 C10.66 6 11.32 6 12 6 C12.33 6.66 12.66 7.32 13 8 C15.52733235 8.65555119 15.52733235 8.65555119 18 9 C18 9.99 18 10.98 18 12 C13.06997723 10.6453541 9.66547773 8.54517608 5.625 5.4375 C5.07972656 5.02564453 4.53445313 4.61378906 3.97265625 4.18945312 C2.62431034 3.15707299 1.30874122 2.08214687 0 1 C0 0.67 0 0.34 0 0 Z " fill="#F1C535" transform="translate(706,358)" />
    <path d="M0 0 C3.05936637 3.75467691 5 7.08113061 5 12 C5.928125 12.1546875 5.928125 12.1546875 6.875 12.3125 C9 13 9 13 11 16 C11 16.99 11 17.98 11 19 C10.34 19 9.68 19 9 19 C8.34 17.68 7.68 16.36 7 15 C6.01 15.495 6.01 15.495 5 16 C4.73445312 15.32453125 4.46890625 14.6490625 4.1953125 13.953125 C3.84210938 13.06109375 3.48890625 12.1690625 3.125 11.25 C2.77695313 10.36828125 2.42890625 9.4865625 2.0703125 8.578125 C1.06169378 6.02311179 1.06169378 6.02311179 -0.1953125 3.796875 C-0.46085938 3.20390625 -0.72640625 2.6109375 -1 2 C-0.67 1.34 -0.34 0.68 0 0 Z " fill="#75ADCE" transform="translate(220,204)" />
    <path d="M0 0 C0.66 0.99 1.32 1.98 2 3 C1.34 3 0.68 3 0 3 C-0.0825 4.010625 -0.165 5.02125 -0.25 6.0625 C-0.87199729 10.42536672 -2.52814838 13.36492409 -5 17 C-5.99 17.33 -6.98 17.66 -8 18 C-6.65150163 13.64029169 -4.95092154 9.68658562 -2.875 5.625 C-2.33617187 4.56539062 -1.79734375 3.50578125 -1.2421875 2.4140625 C-0.83226562 1.61742187 -0.42234375 0.82078125 0 0 Z " fill="#81B0CB" transform="translate(306,224)" />
    <path d="M0 0 C2.04190981 0.14238837 4.08352045 0.28907028 6.125 0.4375 C7.83042969 0.55931641 7.83042969 0.55931641 9.5703125 0.68359375 C12.7540478 0.97730965 15.85510907 1.43124313 19 2 C19 2.33 19 2.66 19 3 C12.73 3 6.46 3 0 3 C0 2.01 0 1.02 0 0 Z " fill="#F6C217" transform="translate(761,204)" />
    <path d="M0 0 C2.64 0 5.28 0 8 0 C8.33 0.66 8.66 1.32 9 2 C10.88764903 2.68472665 10.88764903 2.68472665 13.0625 3.125 C13.79597656 3.29257812 14.52945313 3.46015625 15.28515625 3.6328125 C15.85105469 3.75398438 16.41695312 3.87515625 17 4 C17.33 5.32 17.66 6.64 18 8 C13.78224268 6.64474464 9.70578678 5.09799886 5.625 3.375 C4.56539062 2.92898438 3.50578125 2.48296875 2.4140625 2.0234375 C1.61742187 1.68570312 0.82078125 1.34796875 0 1 C0 0.67 0 0.34 0 0 Z " fill="#F1C73E" transform="translate(797,301)" />
    <path d="M0 0 C1.30249153 3.59855032 0.69931441 5.58099473 -0.75 9.0625 C-1.09546875 9.91972656 -1.4409375 10.77695312 -1.796875 11.66015625 C-2.96264917 13.92735991 -4.09652606 15.33172543 -6 17 C-6.66 16.67 -7.32 16.34 -8 16 C-7.67 15.01 -7.34 14.02 -7 13 C-6.34 13 -5.68 13 -5 13 C-4.9175 12.34 -4.835 11.68 -4.75 11 C-3.75240209 7.00960837 -1.92833317 3.61450357 0 0 Z " fill="#7EAFCD" transform="translate(272,291)" />
    <path d="M0 0 C7.45937249 0.61142397 7.45937249 0.61142397 10 2.4375 C11 4 11 4 11 6 C12.32 6 13.64 6 15 6 C15 6.66 15 7.32 15 8 C10.96522658 7.41841104 8.14758799 6.13243941 4.6875 4 C3.80449219 3.46375 2.92148437 2.9275 2.01171875 2.375 C1.34785156 1.92125 0.68398438 1.4675 0 1 C0 0.67 0 0.34 0 0 Z " fill="#FDF1B3" transform="translate(808,238)" />
    <path d="M0 0 C0.9178125 0.20496094 1.835625 0.40992188 2.78125 0.62109375 C9.17877808 2.02559309 15.48033667 3.34803367 22 4 C22 4.33 22 4.66 22 5 C14.7725395 5.24091535 8.09705662 4.34495828 1 3 C0.67 2.01 0.34 1.02 0 0 Z " fill="#F0CC4A" transform="translate(730,398)" />
    <path d="M0 0 C6.94490614 0.17683789 11.42262143 1.88155424 17 6 C15 7 15 7 12.5390625 6.29296875 C11.57742188 5.92816406 10.61578125 5.56335938 9.625 5.1875 C8.66851563 4.83042969 7.71203125 4.47335937 6.7265625 4.10546875 C4.4142602 3.16795937 2.20868602 2.15668154 0 1 C0 0.67 0 0.34 0 0 Z " fill="#F0C63F" transform="translate(780,294)" />
    <path d="M0 0 C3 1 3 1 4.1875 3.0625 C4.455625 3.701875 4.72375 4.34125 5 5 C3.68 5 2.36 5 1 5 C-1.25065102 6.91666921 -1.25065102 6.91666921 -3 9 C-3.33 8.34 -3.66 7.68 -4 7 C-3.22265625 5.2734375 -3.22265625 5.2734375 -2.0625 3.375 C-1.381875 2.26125 -0.70125 1.1475 0 0 Z " fill="#FDF1B4" transform="translate(701,354)" />
    <path d="M0 0 C0.66 0 1.32 0 2 0 C2.83819158 1.62249941 3.6704116 3.24808497 4.5 4.875 C4.9640625 5.77992188 5.428125 6.68484375 5.90625 7.6171875 C7 10 7 10 7 12 C6.34 12 5.68 12 5 12 C3.60699818 10.04109119 2.27754554 8.0360882 1 6 C0.34 5.01 -0.32 4.02 -1 3 C-0.67 2.01 -0.34 1.02 0 0 Z " fill="#7BACC8" transform="translate(226,270)" />
    <path d="M0 0 C4.23322844 0.62045463 7.52290295 2.10523559 11.3125 4.0625 C12.38113281 4.61035156 13.44976563 5.15820312 14.55078125 5.72265625 C15.35902344 6.14417969 16.16726563 6.56570313 17 7 C16.01 7.495 16.01 7.495 15 8 C12.57811713 7.13986463 10.28234422 6.22315901 7.9375 5.1875 C7.28716797 4.91357422 6.63683594 4.63964844 5.96679688 4.35742188 C1.12912168 2.25824336 1.12912168 2.25824336 0 0 Z " fill="#FEF6BC" transform="translate(712,389)" />
    <path d="M0 0 C0.33 0 0.66 0 1 0 C1.46450943 6.50313209 0.32575612 10.4174808 -3 16 C-3.66 16 -4.32 16 -5 16 C-4.5978125 14.824375 -4.5978125 14.824375 -4.1875 13.625 C-2.70766479 9.10760831 -1.35097726 4.55729662 0 0 Z " fill="#F2C63D" transform="translate(835,360)" />
    <path d="M0 0 C0.66 0.33 1.32 0.66 2 1 C1.01 1.66 0.02 2.32 -1 3 C-0.67 2.01 -0.34 1.02 0 0 Z M-3 3 C-2.01 3.495 -2.01 3.495 -1 4 C-1.99 4.495 -1.99 4.495 -3 5 C-3 4.34 -3 3.68 -3 3 Z M-3 6 C-4.28965176 7.37562854 -5.62689293 8.70766393 -7 10 C-7.66 10 -8.32 10 -9 10 C-9 10.66 -9 11.32 -9 12 C-9.66 12 -10.32 12 -11 12 C-9.53781513 7.3697479 -9.53781513 7.3697479 -7 5.625 C-5 5 -5 5 -3 6 Z " fill="#FEF8D8" transform="translate(719,224)" />
    <path d="M0 0 C0.33 1.32 0.66 2.64 1 4 C0.34 3.67 -0.32 3.34 -1 3 C-0.67 2.01 -0.34 1.02 0 0 Z M-5 2 C-3.68 2.33 -2.36 2.66 -1 3 C-1.78345715 4.17219543 -2.57702836 5.33763668 -3.375 6.5 C-3.81585938 7.1496875 -4.25671875 7.799375 -4.7109375 8.46875 C-5.13632812 8.9740625 -5.56171875 9.479375 -6 10 C-6.66 10 -7.32 10 -8 10 C-6.125 4.25 -6.125 4.25 -5 2 Z " fill="#6EA9C9" transform="translate(294,256)" />
    <path d="M0 0 C4.29 0 8.58 0 13 0 C13 0.66 13 1.32 13 2 C12.01 2.495 12.01 2.495 11 3 C11 3.66 11 4.32 11 5 C10.29875 4.71125 9.5975 4.4225 8.875 4.125 C5.94547497 2.97866412 2.99078347 1.97374346 0 1 C0 0.67 0 0.34 0 0 Z " fill="#F3C11E" transform="translate(801,210)" />
    <path d="M0 0 C5.28 1.98 10.56 3.96 16 6 C11.94641585 7.01339604 10.71534166 6.94167509 6.875 5.8125 C5.57175781 5.45091797 5.57175781 5.45091797 4.2421875 5.08203125 C2 4 2 4 0 0 Z " fill="#EFC742" transform="translate(714,391)" />
    <path d="M0 0 C2.00753698 1.09040327 4.00588751 2.19773572 6 3.3125 C7.11375 3.92738281 8.2275 4.54226563 9.375 5.17578125 C10.24125 5.77777344 11.1075 6.37976563 12 7 C12 7.99 12 8.98 12 10 C10.68397477 9.38245741 9.37226444 8.75571258 8.0625 8.125 C7.33160156 7.77695312 6.60070312 7.42890625 5.84765625 7.0703125 C4 6 4 6 3 4 C2.01 3.67 1.02 3.34 0 3 C0 2.01 0 1.02 0 0 Z " fill="#FFFACD" transform="translate(712,363)" />
    <path d="M0 0 C0.66 0.99 1.32 1.98 2 3 C1.1875 4.9375 1.1875 4.9375 0 7 C-0.99 7.33 -1.98 7.66 -3 8 C-3 8.99 -3 9.98 -3 11 C-3.66 11 -4.32 11 -5 11 C-3.77472971 6.94718288 -2.30119506 3.55639236 0 0 Z " fill="#7FB2D1" transform="translate(317,203)" />
    <path d="M0 0 C0.66 0 1.32 0 2 0 C2.83819158 1.62249941 3.6704116 3.24808497 4.5 4.875 C4.9640625 5.77992188 5.428125 6.68484375 5.90625 7.6171875 C7 10 7 10 7 12 C6.34 12 5.68 12 5 12 C2.56839395 8.63316085 2 7.26649636 2 3 C1.34 3 0.68 3 0 3 C0 2.01 0 1.02 0 0 Z " fill="#83B0CA" transform="translate(218,254)" />
    <path d="M0 0 C0.33 0 0.66 0 1 0 C1.19517554 1.93674185 1.38087873 3.87444009 1.5625 5.8125 C1.66691406 6.89144531 1.77132812 7.97039062 1.87890625 9.08203125 C2 12 2 12 1 15 C0.34 15 -0.32 15 -1 15 C-0.67 10.05 -0.34 5.1 0 0 Z " fill="#FFFDD9" transform="translate(812,345)" />
    <path d="M0 0 C0 0.33 0 0.66 0 1 C-1.98 1 -3.96 1 -6 1 C-6 1.66 -6 2.32 -6 3 C-9.3 3 -12.6 3 -16 3 C-10.2532008 0.1266004 -6.34447099 -0.10574118 0 0 Z " fill="#FDF5BA" transform="translate(760,208)" />
    <path d="M0 0 C3.96 0.33 7.92 0.66 12 1 C8.99895182 2.50052409 6.90648893 3.38848592 3.75 4.125 C2.5125 4.41375 1.275 4.7025 0 5 C0.66 3.68 1.32 2.36 2 1 C1.34 0.67 0.68 0.34 0 0 Z " fill="#F3C42F" transform="translate(736,208)" />
    <path d="M0 0 C0.99 0.33 1.98 0.66 3 1 C3.625 3.875 3.625 3.875 4 7 C3.34 7.66 2.68 8.32 2 9 C0.4375 6.1875 0.4375 6.1875 -1 3 C-0.67 2.01 -0.34 1.02 0 0 Z " fill="#71A7C9" transform="translate(243,249)" />
    <path d="M0 0 C-1.29017414 0.98113243 -2.58219106 1.95984199 -3.875 2.9375 C-4.59429688 3.48277344 -5.31359375 4.02804688 -6.0546875 4.58984375 C-8 6 -8 6 -10 7 C-9.49396008 4.83125748 -9.00016187 3.00032373 -8 1 C-3.6 -1.2 -3.6 -1.2 0 0 Z " fill="#ECC131" transform="translate(726,218)" />
    <path d="M0 0 C1 3 1 3 -0.25 6.5625 C-2 10 -2 10 -5 12 C-5 10.68 -5 9.36 -5 8 C-4.34 8 -3.68 8 -3 8 C-2.690625 7.05125 -2.38125 6.1025 -2.0625 5.125 C-1 2 -1 2 0 0 Z " fill="#F0C439" transform="translate(697,358)" />
    <path d="M0 0 C1.32 0.33 2.64 0.66 4 1 C4.625 2.8125 4.625 2.8125 5 5 C4.01 6.485 4.01 6.485 3 8 C0 2.25 0 2.25 0 0 Z " fill="#6FA9CB" transform="translate(249,264)" />
    <path d="M0 0 C0.95465783 2.16967689 1.14401212 3.56328793 0.3984375 5.82421875 C-0.35870385 7.5684743 -1.17609198 9.28627131 -2 11 C-2.99 10.67 -3.98 10.34 -5 10 C-4.34 10 -3.68 10 -3 10 C-2.87625 9.0925 -2.7525 8.185 -2.625 7.25 C-2.07890323 4.41029677 -1.42736197 2.47409409 0 0 Z " fill="#F1CC4A" transform="translate(826,236)" />
    <path d="M0 0 C2.0343459 1.41519715 2.90410393 2.54982123 3.421875 4.98046875 C3.66273952 6.98176954 3.83532741 8.9909944 4 11 C2 10 2 10 1.1484375 7.93359375 C0.89320313 7.10988281 0.63796875 6.28617188 0.375 5.4375 C0.11460937 4.61121094 -0.14578125 3.78492188 -0.4140625 2.93359375 C-0.60742188 2.29550781 -0.80078125 1.65742188 -1 1 C-0.67 0.67 -0.34 0.34 0 0 Z " fill="#85B5CF" transform="translate(208,181)" />
    <path d="M0 0 C1.0326802 2.78823655 1.04509293 3.8677274 0.0625 6.75 C-0.288125 7.4925 -0.63875 8.235 -1 9 C-1.66 9 -2.32 9 -3 9 C-3.36923077 3.46153846 -3.36923077 3.46153846 -1.5 1.125 C-1.005 0.75375 -0.51 0.3825 0 0 Z " fill="#FDF3BB" transform="translate(695,367)" />
    <path d="M0 0 C3.55780196 0.60990891 6.6828589 1.5783681 10 3 C10 3.66 10 4.32 10 5 C10.66 5.33 11.32 5.66 12 6 C7.24518354 5.42365861 4.02951788 3.44931479 0 1 C0 0.67 0 0.34 0 0 Z " fill="#FEF8BF" transform="translate(816,218)" />
    <path d="M0 0 C1.32 0 2.64 0 4 0 C4.33 0.66 4.66 1.32 5 2 C7.52733235 2.65555119 7.52733235 2.65555119 10 3 C10 3.99 10 4.98 10 6 C5.56909529 4.79157144 3.01887244 3.48331435 0 0 Z " fill="#EFC843" transform="translate(714,364)" />
    <path d="M0 0 C2.64 0 5.28 0 8 0 C8 0.99 8 1.98 8 3 C9.32 3.33 10.64 3.66 12 4 C10 5 10 5 7.6171875 4.22265625 C6.71226562 3.83980469 5.80734375 3.45695312 4.875 3.0625 C3.50988281 2.49208984 3.50988281 2.49208984 2.1171875 1.91015625 C1.41851563 1.60980469 0.71984375 1.30945313 0 1 C0 0.67 0 0.34 0 0 Z " fill="#FEF3B7" transform="translate(734,303)" />
    <path d="M0 0 C0.33 0 0.66 0 1 0 C1 2.97 1 5.94 1 9 C-0.32 8.67 -1.64 8.34 -3 8 C-1.125 2.25 -1.125 2.25 0 0 Z " fill="#7DB1D1" transform="translate(276,283)" />
    <path d="M0 0 C2 2.66666667 4 5.33333333 6 8 C5.67 8.66 5.34 9.32 5 10 C3.0625 9.5 3.0625 9.5 1 8 C0.31209578 5.30341548 0.18053536 2.7982981 0 0 Z " fill="#F0CB42" transform="translate(706,278)" />
    <path d="M0 0 C0.66 0.33 1.32 0.66 2 1 C0.9375 2.9375 0.9375 2.9375 -1 5 C-4.6875 5.75 -4.6875 5.75 -8 6 C-5.33333333 4 -2.66666667 2 0 0 Z " fill="#F1CD53" transform="translate(814,390)" />
    <path d="M0 0 C0 3 0 3 -1 5 C-1.66 5 -2.32 5 -3 5 C-3 5.66 -3 6.32 -3 7 C-4.32 7.33 -5.64 7.66 -7 8 C-5.08864614 4.46399535 -3.37357234 2.21027154 0 0 Z " fill="#FDF2B7" transform="translate(719,222)" />
    <path d="M0 0 C2.64465038 3.1254959 3.84414715 6.08788267 5 10 C2 9 2 9 0.8125 7.25 C-0.10819096 4.70039426 -0.14948718 2.69076919 0 0 Z " fill="#83AFC8" transform="translate(178,173)" />
    <path d="M0 0 C0.66 0.99 1.32 1.98 2 3 C0.625 6.6875 0.625 6.6875 -1 10 C-2.10717914 6.67846257 -1.9099978 4.36699184 -1 1 C-0.67 0.67 -0.34 0.34 0 0 Z " fill="#77ADCA" transform="translate(304,176)" />
    <path d="M0 0 C1.48199902 0.44909061 2.96055236 0.90956564 4.4375 1.375 C5.26121094 1.63023437 6.08492187 1.88546875 6.93359375 2.1484375 C9 3 9 3 10 5 C6.44219804 4.39009109 3.3171411 3.4216319 0 2 C0 1.34 0 0.68 0 0 Z " fill="#EDC437" transform="translate(731,302)" />
    <path d="M0 0 C3.37462715 0.54723683 5.08235 1.0549 8 3 C8 3.66 8 4.32 8 5 C2.25 3.375 2.25 3.375 0 0 Z " fill="#FEF3B2" transform="translate(722,296)" />
    <path d="M0 0 C4.7517398 0.43197635 6.92000054 1.32769295 10 5 C2.42857143 3.14285714 2.42857143 3.14285714 0 0 Z " fill="#EEC438" transform="translate(744,281)" />
    <path d="M0 0 C0.66 0.66 1.32 1.32 2 2 C0.68 4.31 -0.64 6.62 -2 9 C-2.99 8.34 -3.98 7.68 -5 7 C-4.67 6.34 -4.34 5.68 -4 5 C-3.34 5 -2.68 5 -2 5 C-1.34 3.35 -0.68 1.7 0 0 Z " fill="#7CACC5" transform="translate(258,268)" />
    <path d="M0 0 C0.66 0.99 1.32 1.98 2 3 C-0.625 7.875 -0.625 7.875 -4 9 C-2.80100302 5.9168649 -1.52299523 2.93720508 0 0 Z " fill="#7BADC9" transform="translate(281,274)" />
</svg>
